#!OML:ASF F:\VICON\USERDATA\INSTALL\rory3\rory3.ASF
:FULLY-SPECIFIED
:DEGREES
38
root -0.49996832181602086 18.183434800414076 -9.652404711393636 4.998235162844889 5.922553700307577 -1.4190735945453898
lfemur -36.30163698494019 -1.8079922613276926 -18.622429098946636
ltibia 47.98334251038484
lfoot -3.1264325299565923 -5.692182101896167
ltoes -20.98460199992069
rfemur 11.107851167729724 3.3247194772750213 33.519386381876515
rtibia 12.358593123650117
rfoot 23.892533596520348 -4.077035197467518
rtoes -6.857413629308732
lowerback 1.0 0.5090889295291463 3.4874144147800203
upperback -2.1807261668397655 1.4885773046222792 0.6035959918494896
thorax -10.20512132978482 0.40659344231324523 -0.10558115302277382
lowerneck -17.856783481392135 -5.981041967380762 -1.7423841566069016
upperneck 18.36944543481231 -7.227220506791765 0.7190726391162863
head 8.75938761529034 -3.461897868096149 -0.3306055884194591
lclavicle -4.519305459838555e-14 -3.7177144342747683e-14
lhumerus -64.41676447922545 -8.933088860396504 96.8737681087053
lradius 106.37173091247116
lwrist 37.28436110978671
lhand -32.77728027453074 -1.2228164736625156
lfingers nan
lthumb -6.12146127876338 28.498814593255805
rclavicle -4.400235655314786e-14 -3.677832040733283e-14
rhumerus -47.38074622155071 13.469931685904958 -97.20394327219852
rradius 131.5154238971781
rwrist -17.77104754303767
rhand -16.075031263537824 1.0
rfingers nan
rthumb 10.04720017500046 10.547519746394405
39
root -0.4867283113667916 18.239883508650095 -8.888482599408555 5.069526959865444 5.665493817039861 -1.297345481402043
lfemur -35.344557565650334 -2.306794380536126 -19.058566521873225
ltibia 42.69096667000082
lfoot -2.859031211881995 -7.17836541360214
ltoes -24.431833181965192
rfemur 12.06577313097463 3.8052565034896464 33.37495331549375
rtibia 12.00144067215841
rfoot 26.07692897535537 -3.8730289019838
rtoes -4.4920990692760085
lowerback 1.0 0.484382727305498 3.360700129905136
upperback -2.452673367680058 1.5666942977584046 0.35280154896408433
thorax -10.5478281209909 0.4311467542116787 -0.20464484591811893
lowerneck -17.787124490947825 -5.948733630942034 -1.6962016899836851
upperneck 18.7089758622069 -7.166764334906425 0.8023118347518043
head 8.908982226542582 -3.458018861722234 -0.2968644273279367
lclavicle -6.266868917368361e-15 7.469521628786334e-15
lhumerus -65.54747562434056 -8.197054386368778 96.27458362861533
lradius 106.92092875017443
lwrist 38.868261681554216
lhand -35.51876065848808 0.910593175253061
lfingers nan
lthumb -8.759766228035614 30.574789103910973
rclavicle -5.105275043338075e-15 7.620330539433152e-15
rhumerus -48.07280961711979 13.772196585266794 -98.11452078339919
rradius 132.185318034732
rwrist -20.459678259374655
rhand -15.142628660263288 1.0
rfingers nan
rthumb 10.879650573605502 26.42519101738138
40
root -0.48262667879333787 18.281309069757743 -8.17882616204757 5.178385330864292 5.417291200390763 -1.3449890105476725
lfemur -34.472816872611034 -2.5321590687478155 -19.291093062236335
ltibia 37.4867318467268
lfoot -2.0230653866202766 -9.23367493091085
ltoes -25.595035122445665
rfemur 12.519858010178712 4.566788058718609 33.6377768500164
rtibia 12.408679684436208
rfoot 28.68515515106114 -3.9026849129975
rtoes 7.001067754611958
lowerback 1.0 0.4821170315975884 3.1664291930798223
upperback -2.6258843054220184 1.6711896406655598 0.25326309961293325
thorax -10.719521789010482 0.4774162455746884 -0.19867475726771477
lowerneck -17.67573448484793 -6.024374333763961 -1.711525949109999
upperneck 18.47371128600389 -7.1402578058476935 0.9589256095619729
head 8.88377108361689 -3.4583457003179756 -0.22983044005512998
lclavicle 5.556125538303359e-14 -1.2217651884195186e-14
lhumerus -66.26541926888183 -7.61229427863263 95.74305310476078
lradius 107.402810612879
lwrist 39.94978992908468
lhand -40.777094679667506 4.7360686237121365
lfingers nan
lthumb -13.798628631610704 34.23871656191969
rclavicle 5.6795996376276816e-14 -1.2096396219630102e-14
rhumerus -48.46146439692153 14.284100274390529 -99.12276175919659
rradius 132.56272816445275
rwrist -21.09149449360693
rhand -18.02924356729216 1.0
rfingers nan
rthumb 8.152417023128029 11.282956272369075
41
root -0.48183155417765866 18.30898747726578 -7.2130766162708495 5.141981436285517 4.713744764041577 -1.659200021227135
lfemur -33.36216038890207 -2.2240685552594304 -19.423860343324623
ltibia 32.56829302105831
lfoot -0.3112331432347699 -12.000099040355295
ltoes -22.709664587511682
rfemur 12.77305372068501 5.585210040720003 34.12324836740501
rtibia 13.543782007273954
rfoot 29.846827351042837 -3.4896347931276326
rtoes 15.785596243854208
lowerback 1.0 0.5437444760045211 3.0491217037615694
upperback -2.6662002679865533 1.9542189681938178 0.29946355307379635
thorax -10.818993929645426 0.5892885453725414 -0.11247392950156232
lowerneck -18.4857948751239 -6.062698518575145 -1.858578648577426
upperneck 18.557507585463867 -7.096633668268489 1.1058985788123044
head 9.05405384148438 -3.444554538649993 -0.14820471398212043
lclavicle -1.6898182836257669e-15 1.501384327638817e-14
lhumerus -67.0118303698134 -6.986365238032487 95.26397754725673
lradius 108.12460601177413
lwrist 40.89092093499538
lhand -40.59467307029216 5.737392353048022
lfingers nan
lthumb -13.589661730255866 35.240934857518496
rclavicle -2.299224562000777e-16 1.5416294274479845e-14
rhumerus -49.20498740665807 15.167914530398578 -101.20301738424217
rradius 132.74346737211638
rwrist -13.710399895011744
rhand -24.08533302223756 1.0
rfingers nan
rthumb 2.227667030505864 2.7552151460396574
42
root -0.4644908019069368 18.35609961769005 -6.44193184827462 5.342960008397993 4.210729703600687 -1.7889444069334612
lfemur -32.56064905521711 -1.8430667772891867 -19.737841301984616
ltibia 28.10599012021658
lfoot 2.401450096258612 -13.85364692259185
ltoes -18.368416698489447
rfemur 12.667664069697441 6.56055669278799 34.32684774095373
rtibia 15.342143191847114
rfoot 28.976393058323957 -2.5530998960599094
rtoes 20.333344156122237
lowerback 1.0 0.6043162572788499 2.866783684228702
upperback -2.935545761171723 2.179443851808485 0.22004589736899383
thorax -11.29222856395449 0.6701280788815532 -0.07864803789716635
lowerneck -19.238878319211096 -6.052315631776006 -1.8504973300335346
upperneck 18.863350044248424 -7.000628678083503 1.1550350404384786
head 9.279961898059518 -3.404255243828994 -0.13744385729923847
lclavicle -2.5106200086215797e-14 -2.4078232701468066e-14
lhumerus -67.83486675604198 -6.371745659708979 94.7425884369163
lradius 108.97966625595078
lwrist 41.77361384952763
lhand -35.55264332447396 3.68333607628807
lfingers nan
lthumb -8.71780188753965 33.39078070532905
rclavicle -2.303635739377563e-14 -2.3384165058853626e-14
rhumerus -49.91635699110144 15.576327806343954 -102.50216828340076
rradius 132.95842570259268
rwrist -19.883905500962943
rhand -22.93195517988079 1.0
rfingers nan
rthumb 3.392428026544282 0.7684657971869804
43
root -0.45888621637467086 18.390932489073293 -6.200701059747362 5.582751309005719 3.7646088347012734 -1.926778062151192
lfemur -31.5186235723905 -1.333023443558045 -20.19142869578259
ltibia 24.439629734810527
lfoot 4.007659331981172 -15.138136445165248
ltoes -16.099641424308054
rfemur 12.378426391758648 7.268774087660308 34.442340069679645
rtibia 17.818848382623386
rfoot 27.897033647572787 -1.3208656070270655
rtoes 22.63070280146552
lowerback 1.0 0.6399765199264034 2.6267610703282505
upperback -3.082932568999769 2.331981080623222 0.21477015064664373
thorax -11.245668656044938 0.7144806590070238 0.06644537808587847
lowerneck -19.482112241404323 -6.029515971817277 -1.6856426562284064
upperneck 18.507607539613808 -6.830277918681923 1.068356480058785
head 9.15625102463589 -3.3154282039787555 -0.15068115602671395
lclavicle -6.797284526394857e-14 -2.5895889897143847e-14
lhumerus -68.22019465683384 -5.820557743918544 94.3134153429463
lradius 109.65526340013612
lwrist 42.0654465158843
lhand -31.43490217398831 2.2468445544116538
lfingers nan
lthumb -4.726110527309442 32.07527234559691
rclavicle -6.632607907059565e-14 -2.556070712160007e-14
rhumerus -50.50691477863153 15.890096480799622 -103.6863578256055
rradius 133.06820792564992
rwrist -23.92396855307004
rhand -23.575897344947748 1.0
rfingers nan
rthumb 2.823269108818355 -6.428508426050767
44
root -0.45589832087314963 18.41428581656711 -5.790187154918493 5.70581172713293 2.933036437146565 -2.283957212083077
lfemur -30.654868195331233 -0.6551956402810315 -20.438340155236173
ltibia 21.34563810302796
lfoot 5.32747901145706 -15.38250473139472
ltoes -16.189939335370553
rfemur 11.997603754506546 8.14576140464903 34.62048388697951
rtibia 20.86970529562454
rfoot 28.586877046869102 -0.6034954461069768
rtoes 22.460426260245807
lowerback 1.0 0.7577618002309818 2.324272438653484
upperback -2.8311836142985856 2.5970610481254646 0.37025144175063307
thorax -10.277970127174891 0.8408681221305593 0.2067266982327462
lowerneck -19.9763756385426 -5.942444710261573 -1.6231023166590353
upperneck 17.788852707682373 -6.617401070840928 1.0447753895864702
head 8.963261900450794 -3.2086052494552124 -0.10362704224208319
lclavicle -2.400834553345804e-14 1.775289412807105e-15
lhumerus -68.18731948041741 -5.288139086423809 93.95251315981973
lradius 110.21300548730967
lwrist 42.2059146323717
lhand -28.67473998914725 1.4958266066588537
lfingers nan
lthumb -2.0373008643585875 31.404800518913774
rclavicle -2.2702538445115092e-14 2.1417664013179163e-15
rhumerus -50.76262358529469 16.126681133866555 -104.01329727156573
rradius 132.9496679087384
rwrist -25.87111854820525
rhand -24.23920889997894 1.0
rfingers nan
rthumb 2.193259225387778 -8.470415226227487
45
root -0.4564612382652107 18.429039090406935 -5.071531015520185 5.647425333972949 2.224980918955948 -2.798801468460818
lfemur -30.139283080724823 -0.04457726773112991 -20.41508743018524
ltibia 19.421072549781528
lfoot 6.345197051133674 -14.726933261115203
ltoes -16.725054117977514
rfemur 11.502908805158597 8.686699637621519 34.932094903595036
rtibia 24.357268175615438
rfoot 28.18130128116258 -0.8788081403797596
rtoes 23.400177667820298
lowerback 1.0 0.8305912293849915 2.4311991268926976
upperback -2.406746849084403 2.8326528446539685 0.5012114570307139
thorax -9.336187447634966 0.9421016997120472 0.11753422203506775
lowerneck -21.240297299386523 -5.856457808411243 -1.6115459523813178
upperneck 17.164049356973923 -6.444834895009959 1.1924109730982304
head 8.939615005683649 -3.102791926733211 -0.017737911853552335
lclavicle -1.1178154131226717e-14 -1.9960140559625175e-14
lhumerus -67.73839283006467 -4.813492695680603 93.6539231270914
lradius 110.75600004215961
lwrist 42.66112965288286
lhand -27.000482117139327 1.5084810234747648
lfingers nan
lthumb -0.3870628666687539 31.467197556181475
rclavicle -9.624505882810209e-15 -1.9441120587678814e-14
rhumerus -50.705072062060516 16.438639272275044 -104.37055774496848
rradius 132.5731207268769
rwrist -29.33394818685231
rhand -23.320034187295228 1.0
rfingers nan
rthumb 3.047279936718904 -6.357472974887003
